<svg width="20" height="20" viewBox="0 0 20 20" fill="none" xmlns="http://www.w3.org/2000/svg">
<path fill-rule="evenodd" clip-rule="evenodd" d="M8.14404 1.25051C8.43598 0.522459 9.14303 0 10 0C10.8617 0 11.5718 0.528206 11.8607 1.26251C14.5086 2.06352 16 4.6285 16 8.00002C16 9.45143 16 16 19 16V17H1V16C4 16 4 9.49128 4 8C4 4.61146 5.43801 2.03763 8.14404 1.25051ZM6.31162 3.59746C7.11702 2.61257 8.32181 2 10 2C11.6221 2 12.8321 2.60841 13.6547 3.60211C14.4953 4.6175 15 6.12202 15 8.00002V8.01345C15 8.74675 14.9999 10.8275 15.3956 12.7462C15.5932 13.7046 15.9067 14.7138 16.4321 15.5065C16.5464 15.6791 16.6739 15.8452 16.815 16H3.18847C3.32757 15.8475 3.45349 15.684 3.5667 15.514C4.09283 14.724 4.40656 13.7179 4.60429 12.7617C5.00006 10.8477 5.00002 8.76668 5 8.01408V8C5 6.11137 5.48504 4.60825 6.31162 3.59746Z" fill="#4D3DBF"/>
<path d="M12 18C12 19.1046 11.1046 20 10 20C8.89543 20 8 19.1046 8 18H12Z" fill="#4D3DBF"/>
</svg>
