<svg width="66" height="66" viewBox="0 0 66 66" fill="none" xmlns="http://www.w3.org/2000/svg">
<rect width="66" height="66" rx="33" fill="#F8F8F8"/>
<path d="M29.1223 42.2804C29.0817 42.2804 29.0448 42.2767 29.0042 42.2693C27.9447 42.0364 26.9664 41.7036 26.0914 41.2821C25.8146 41.149 25.7001 40.8162 25.8367 40.5426C25.9696 40.269 26.3019 40.1507 26.5751 40.2875C27.3688 40.672 28.2659 40.9789 29.2405 41.1897C29.5395 41.2562 29.7278 41.552 29.665 41.8515C29.6096 42.1103 29.3808 42.2878 29.126 42.2878L29.1223 42.2804ZM23.9133 39.6663C23.7767 39.6663 23.6401 39.6145 23.5294 39.5147C22.791 38.8085 22.1561 37.9729 21.6466 37.0337C21.4989 36.7638 21.6023 36.4273 21.8681 36.2831C22.1376 36.1352 22.4736 36.2387 22.6175 36.505C23.0716 37.3443 23.6328 38.0875 24.2899 38.7124C24.5114 38.9231 24.5188 39.2744 24.3083 39.4962C24.2013 39.6108 24.0536 39.6663 23.9059 39.6663H23.9133ZM21.0744 34.5712C20.8271 34.5712 20.6055 34.4048 20.5391 34.1571C20.2991 33.2401 20.1293 32.2307 20.0333 31.1547C20.0075 30.8478 20.229 30.5816 20.5354 30.552C20.8381 30.5261 21.1076 30.748 21.1372 31.0549C21.2294 32.0717 21.3882 33.0219 21.6097 33.8797C21.6872 34.1755 21.51 34.4787 21.2147 34.5564C21.1667 34.5675 21.1224 34.5749 21.0744 34.5749V34.5712ZM20.5539 28.7107C20.5133 28.7107 20.469 28.707 20.4283 28.6959C20.1293 28.6256 19.9447 28.3298 20.0149 28.0303C20.1625 27.3944 20.5576 26.5255 21.3033 25.2128C21.4546 24.9466 21.7943 24.8542 22.0564 25.0021C22.3222 25.1537 22.4145 25.4902 22.2668 25.7564C21.5986 26.9396 21.2147 27.7641 21.0965 28.2781C21.0375 28.5332 20.8086 28.707 20.5576 28.707L20.5539 28.7107ZM23.3005 23.512C23.2008 23.512 23.0975 23.4861 23.0052 23.427C22.7467 23.2643 22.6692 22.9204 22.8317 22.6616C23.3005 21.911 23.8395 21.0717 24.4302 20.1658C24.5963 19.9107 24.9433 19.8367 25.198 20.0068C25.4528 20.1732 25.5266 20.517 25.3568 20.7759C24.7698 21.6781 24.2345 22.51 23.7694 23.2532C23.6623 23.4196 23.4851 23.512 23.3005 23.512ZM26.5271 18.5611C26.42 18.5611 26.3129 18.5315 26.2207 18.4686C25.9659 18.2986 25.8995 17.9547 26.0693 17.6996C26.5787 16.9416 27.1288 16.1244 27.7269 15.2481C27.9004 14.9967 28.2437 14.9302 28.4948 15.1039C28.7458 15.2777 28.8122 15.6216 28.6387 15.873C28.0444 16.7493 27.4943 17.5628 26.9885 18.317C26.8815 18.476 26.708 18.5611 26.5271 18.5611ZM29.8496 13.6767C29.7426 13.6767 29.6318 13.6434 29.5358 13.5806C29.2848 13.4068 29.222 13.0629 29.3955 12.8078L29.7426 12.3012C29.9161 12.0498 30.2631 11.987 30.5141 12.1607C30.7652 12.3345 30.8279 12.6821 30.6544 12.9335L30.3074 13.4364C30.2003 13.5917 30.0268 13.6767 29.8496 13.6767Z" fill="#4D3DBF"/>
<path d="M32.6695 38.9794C26.8365 38.9794 23.6248 35.5 23.6248 29.181C23.6248 28.8853 23.7503 28.6819 25.5186 26.0641C26.4821 24.6405 27.682 22.8694 28.9298 20.9283C31.1817 17.4231 33.3044 12.3908 33.3266 12.339C33.4447 12.058 33.7696 11.9249 34.0502 12.0432C34.3307 12.1615 34.4636 12.4869 34.3455 12.7679C34.2569 12.9787 32.1674 17.9407 29.8601 21.5273C28.6049 23.4795 27.4014 25.258 26.4342 26.6852C25.6441 27.8537 24.8947 28.9592 24.7286 29.2772C24.7507 33.2224 26.161 37.8664 32.6658 37.8664C35.5822 37.8664 38.3252 36.576 40.1895 34.3279C40.3852 34.0913 40.7359 34.058 40.9684 34.2577C41.2047 34.4537 41.2342 34.8012 41.0386 35.0379C38.9601 37.5411 35.9071 38.9757 32.6621 38.9757L32.6695 38.9794Z" fill="#3F3F3F"/>
<path d="M28.1154 56.9122C27.9492 56.9122 27.7831 56.8382 27.6724 56.694C27.4878 56.45 27.5358 56.1024 27.7794 55.9176C34.8048 50.5673 30.3562 38.5838 30.3119 38.4617C30.2049 38.177 30.3452 37.8554 30.6331 37.7444C30.9174 37.6335 31.2386 37.7777 31.3493 38.0661C31.5487 38.5912 36.1412 50.9444 28.455 56.8012C28.3553 56.8789 28.2372 56.9159 28.1191 56.9159L28.1154 56.9122Z" fill="#3F3F3F"/>
</svg>
