<svg width="66" height="66" viewBox="0 0 66 66" fill="none" xmlns="http://www.w3.org/2000/svg">
<rect width="66" height="66" rx="33" fill="#F8F8F8"/>
<path d="M13.5527 34.7187C13.4309 34.7187 13.3054 34.678 13.202 34.593C12.9658 34.397 12.9325 34.0494 13.1245 33.8128C13.2168 33.7019 13.5564 33.2915 14.1323 32.6814C14.3428 32.4595 14.6935 32.4484 14.915 32.6592C15.1365 32.8699 15.1476 33.2212 14.9371 33.4431C14.3723 34.042 14.0401 34.4414 13.981 34.5153C13.8702 34.6484 13.7115 34.7187 13.5527 34.7187Z" fill="#4D3DBF"/>
<path d="M16.5907 31.6059C16.4393 31.6059 16.288 31.543 16.1809 31.4247C15.9742 31.1992 15.9926 30.8479 16.2215 30.6408C16.9488 29.9827 17.7019 29.3504 18.4587 28.7625C18.6987 28.574 19.0494 28.6183 19.234 28.8624C19.4222 29.1064 19.3779 29.454 19.1343 29.6388C18.3996 30.2082 17.6687 30.822 16.9636 31.4617C16.8565 31.5578 16.7236 31.6059 16.5907 31.6059ZM49.9454 31.5985C49.8125 31.5985 49.6796 31.5504 49.5725 31.4543C48.8674 30.8146 48.1364 30.2045 47.4018 29.6314C47.1581 29.4429 47.1138 29.0953 47.3021 28.855C47.4904 28.6109 47.8374 28.5666 48.0774 28.7551C48.8378 29.343 49.591 29.9753 50.3145 30.6335C50.5434 30.8405 50.5582 31.1881 50.3551 31.4173C50.2444 31.5393 50.0967 31.5985 49.9454 31.5985ZM21.1389 28.0896C20.958 28.0896 20.7808 28.0008 20.6737 27.8345C20.5076 27.5756 20.5814 27.2355 20.8399 27.0691C21.6779 26.5292 22.5307 26.0338 23.3724 25.5975C23.6456 25.457 23.9778 25.5642 24.1181 25.8378C24.2584 26.1114 24.1513 26.4442 23.8781 26.5847C23.066 27.0025 22.2464 27.4795 21.4379 28.0045C21.3456 28.0637 21.2423 28.0933 21.1389 28.0933V28.0896ZM45.3935 28.0859C45.2901 28.0859 45.1867 28.0563 45.0944 27.9971C44.286 27.4758 43.4664 26.9988 42.6542 26.5773C42.381 26.4368 42.274 26.104 42.4143 25.8304C42.5545 25.5568 42.8905 25.4533 43.16 25.5901C44.0017 26.0264 44.8545 26.5219 45.6925 27.0617C45.9509 27.2281 46.0248 27.5719 45.8586 27.8271C45.7516 27.9898 45.5744 28.0822 45.3935 28.0822V28.0859ZM26.2482 25.4681C26.0267 25.4681 25.8163 25.3313 25.7314 25.1094C25.6243 24.8247 25.7646 24.503 26.0526 24.3921C26.9903 24.0371 27.9353 23.745 28.8693 23.5232C29.1721 23.4492 29.4674 23.6378 29.5339 23.9373C29.604 24.2368 29.4194 24.5326 29.1204 24.6029C28.2344 24.8099 27.3373 25.0872 26.4439 25.4274C26.3774 25.4533 26.311 25.4644 26.2482 25.4644V25.4681ZM40.2841 25.4644C40.2177 25.4644 40.1512 25.4533 40.0885 25.4274C39.1951 25.0872 38.298 24.8099 37.412 24.6029C37.113 24.5326 36.9284 24.2331 36.9985 23.9373C37.0687 23.6378 37.364 23.4529 37.663 23.5232C38.5933 23.7413 39.5421 24.0334 40.4798 24.3884C40.7641 24.4956 40.908 24.8173 40.801 25.102C40.7161 25.3239 40.5056 25.4607 40.2841 25.4607V25.4644ZM31.8301 24.1703C31.5458 24.1703 31.3022 23.9521 31.28 23.66C31.2542 23.3531 31.4831 23.0869 31.7858 23.061C32.7715 22.9797 33.7572 22.9797 34.7466 23.061C35.053 23.0869 35.2782 23.3531 35.2523 23.66C35.2265 23.9669 34.9644 24.1924 34.6543 24.1703C33.7276 24.0963 32.801 24.0963 31.8744 24.1703C31.8596 24.1703 31.8449 24.1703 31.8301 24.1703Z" fill="#4D3DBF"/>
<path d="M52.9872 34.7187C52.8284 34.7187 52.6697 34.6484 52.559 34.5153C52.4999 34.4414 52.1639 34.0383 51.6028 33.4431C51.3924 33.2212 51.4034 32.8699 51.6249 32.6592C51.8465 32.4484 52.1972 32.4595 52.4076 32.6814C52.9798 33.2915 53.3231 33.7019 53.4154 33.8128C53.6111 34.0494 53.5742 34.4007 53.3416 34.593C53.2382 34.678 53.1127 34.7187 52.9909 34.7187H52.9872Z" fill="#4D3DBF"/>
<path d="M33.2702 46.0991C23.4614 46.0991 16.8015 38.1125 16.5209 37.7724C15.7014 36.7741 15.7014 35.21 16.5209 34.2117C16.7978 33.8715 23.4577 25.8887 33.2702 25.8887C43.0828 25.8887 49.739 33.8715 50.0196 34.2117C50.8391 35.21 50.8391 36.7741 50.0196 37.7724C49.99 37.8094 49.2738 38.6783 47.9707 39.8541C47.7418 40.0574 47.3948 40.0426 47.188 39.8134C46.9813 39.5841 46.9997 39.2366 47.2286 39.0295C48.4617 37.9129 49.1557 37.0736 49.1631 37.0662C49.6393 36.482 49.6393 35.4984 49.1631 34.9142C49.0966 34.8366 42.5475 26.9942 33.2702 26.9942C23.993 26.9942 17.4439 34.8366 17.3774 34.9179C16.8975 35.5021 16.8975 36.4894 17.3774 37.0699C17.4439 37.1475 23.993 44.9899 33.2702 44.9899C37.069 44.9899 40.8456 43.7142 44.4894 41.1999C44.7404 41.0262 45.0874 41.089 45.2609 41.3404C45.4345 41.5919 45.3717 41.9394 45.1207 42.1132C41.2887 44.7569 37.3016 46.0991 33.2739 46.0991H33.2702Z" fill="#3F3F3F"/>
<path d="M33.2698 43.8845C28.3155 43.8845 24.2878 39.8469 24.2878 34.8886C24.2878 29.9302 28.3192 25.8926 33.2698 25.8926C38.2204 25.8926 42.2517 29.9302 42.2517 34.8886C42.2517 39.8469 38.2204 43.8845 33.2698 43.8845ZM33.2698 26.9981C28.9283 26.9981 25.3954 30.5366 25.3954 34.8849C25.3954 39.2331 28.9283 42.7716 33.2698 42.7716C37.6112 42.7716 41.1442 39.2331 41.1442 34.8849C41.1442 30.5366 37.6112 26.9981 33.2698 26.9981Z" fill="#3F3F3F"/>
<path d="M33.2706 38.5619C31.2476 38.5619 29.6047 36.9129 29.6047 34.8903C29.6047 32.8678 31.2512 31.2188 33.2706 31.2188C35.29 31.2188 36.9365 32.8678 36.9365 34.8903C36.9365 36.9129 35.2937 38.5619 33.2706 38.5619ZM33.2706 32.3243C31.8604 32.3243 30.7123 33.4742 30.7123 34.8867C30.7123 36.2991 31.8604 37.449 33.2706 37.449C34.6808 37.449 35.829 36.2991 35.829 34.8867C35.829 33.4742 34.6808 32.3243 33.2706 32.3243Z" fill="#3F3F3F"/>
</svg>
