<svg width="66" height="56" viewBox="0 0 66 66" fill="none" xmlns="http://www.w3.org/2000/svg">
<rect width="66" height="66" rx="33" fill="#F8F8F8"/>
<path d="M29.5638 57.9856C27.2602 57.9856 25.1522 57.6011 23.8749 56.4844C21.9847 54.8317 22.3022 52.4838 22.8375 51.1896C22.2874 50.6202 21.442 49.707 21.2648 49.2374C20.9732 48.4646 21.7226 47.4034 22.3354 46.7083C20.4674 45.2737 20.3899 44.8633 20.3604 44.7006C20.2385 44.0498 20.8144 43.3362 21.4199 42.5782C21.6229 42.3231 21.933 41.9349 22.077 41.6871C21.5122 41.4431 20.9437 41.2102 20.3936 40.9846C17.9681 39.9937 16.2183 39.2801 16.0189 38.1893C15.9635 37.8935 16.0041 37.4461 16.4951 36.9876C19.1236 34.5325 22.8043 29.4633 22.3465 26.3833C22.2505 25.7325 22.1361 25.152 22.029 24.5937C21.6968 22.8854 21.4088 21.4101 21.9958 19.4874C22.6455 17.354 25.9238 10.5211 28.4526 8.15097C28.6741 7.94021 29.0248 7.9513 29.2353 8.17684C29.4457 8.40239 29.4309 8.74996 29.2094 8.96072C26.9464 11.0794 23.6829 17.7459 23.0553 19.8091C22.5496 21.4693 22.7895 22.6895 23.1144 24.3829C23.2251 24.956 23.3396 25.5476 23.4393 26.2243C24.0078 30.0696 19.515 35.6861 17.2446 37.8048C17.1301 37.912 17.1006 37.9822 17.1043 37.9933C17.1966 38.4851 19.371 39.3762 20.8071 39.9641C21.4383 40.2229 22.0918 40.4891 22.7415 40.7738C22.9926 40.8848 23.1661 41.0844 23.2288 41.3359C23.3691 41.9127 22.8892 42.5154 22.2801 43.2771C22.0106 43.6098 21.5306 44.2162 21.4568 44.4787C21.6931 44.7856 22.6603 45.588 23.4873 46.198C23.6165 46.2942 23.6977 46.4421 23.7125 46.6048C23.7235 46.7675 23.6645 46.9265 23.55 47.0374C22.8707 47.714 22.2653 48.6014 22.3022 48.8639C22.3982 49.0932 23.203 49.9991 23.8897 50.6905C24.0632 50.8643 24.1001 51.1268 23.9856 51.345C23.9303 51.4485 22.6492 53.9554 24.5985 55.6599C27.5629 58.2519 37.0211 56.0888 40.4138 55.035C40.7091 54.9426 41.0155 55.109 41.1078 55.4011C41.2001 55.6932 41.034 56.0038 40.7424 56.0962C40.3843 56.2071 34.5218 58.0004 29.5564 58.0004L29.5638 57.9856Z" fill="#3F3F3F"/>
<path d="M28.5674 54.9311C28.272 54.9311 28.0284 54.6982 28.0136 54.4024C27.9988 54.0955 28.2351 53.8367 28.5415 53.8219C28.5526 53.8219 29.6786 53.7664 31.3878 53.4078C31.6832 53.3449 31.9822 53.5372 32.045 53.8367C32.1077 54.1362 31.9157 54.432 31.6167 54.4948C29.8115 54.872 28.6449 54.9311 28.5969 54.9311C28.5895 54.9311 28.5784 54.9311 28.571 54.9311H28.5674ZM34.3596 53.7443C34.1271 53.7443 33.9093 53.5964 33.8317 53.3597C33.7358 53.0676 33.8982 52.757 34.1861 52.6609C35.1091 52.3614 36.0172 52.0102 36.8885 51.6219C37.1691 51.4962 37.4939 51.6219 37.6194 51.8992C37.745 52.1802 37.6194 52.5056 37.3426 52.6313C36.4344 53.038 35.4893 53.4041 34.5295 53.7147C34.4741 53.7332 34.415 53.7406 34.3596 53.7406V53.7443ZM39.7348 51.3113C39.5465 51.3113 39.3619 51.2152 39.2586 51.0414C39.0998 50.7789 39.1847 50.4387 39.4468 50.2797C40.2775 49.7806 41.0749 49.2296 41.8206 48.6417C42.0606 48.4532 42.4076 48.4938 42.5996 48.7342C42.7878 48.9745 42.7472 49.3221 42.5073 49.5143C41.7283 50.1318 40.8903 50.7086 40.0191 51.2337C39.9305 51.2854 39.8308 51.3113 39.7348 51.3113ZM44.3568 47.6545C44.2202 47.6545 44.08 47.6027 43.9729 47.4992C43.7514 47.2848 43.7477 46.9335 43.9581 46.7153C44.6226 46.0276 45.2465 45.2844 45.8077 44.5116C45.9886 44.2639 46.3356 44.2085 46.5829 44.3896C46.8303 44.5708 46.8856 44.9184 46.7048 45.1661C46.1141 45.9795 45.457 46.7597 44.7592 47.4844C44.6522 47.5954 44.5045 47.6545 44.3605 47.6545H44.3568ZM47.827 42.8958C47.7384 42.8958 47.6461 42.8737 47.5649 42.8293C47.2954 42.6851 47.1958 42.3486 47.3397 42.0787C47.7901 41.2468 48.1962 40.3668 48.5432 39.4609C48.654 39.1762 48.9752 39.032 49.2594 39.1429C49.5437 39.2538 49.6877 39.5755 49.5769 39.8602C49.2114 40.8068 48.7869 41.7311 48.3144 42.6038C48.2147 42.7886 48.0227 42.8958 47.827 42.8958Z" fill="#4D3DBF"/>
</svg>
