<svg width="124" height="28" viewBox="0 0 124 28" fill="none" xmlns="http://www.w3.org/2000/svg">
<path d="M116.356 3.50391C116.356 9.93321 116.356 23.1109 116.356 23.2013H102.758V3.50391C102.758 3.50391 102.763 3.50391 102.769 3.50391C103.912 3.50391 105.054 3.51454 106.197 3.50391C106.197 5.42898 106.197 7.88051 106.197 9.84281H107.808C107.808 7.91774 107.808 3.50391 107.808 3.50391C107.808 3.50391 110.36 3.51454 111.258 3.50391C111.253 5.53533 111.258 7.81138 111.258 9.84281H112.885V3.50391H116.361H116.356ZM112.869 19.8404V13.2143C112.396 13.2143 111.253 13.2143 111.253 13.2143C111.253 15.0915 111.253 19.8404 111.253 19.8404H112.869ZM106.197 19.8404H107.808V13.2143C107.351 13.2143 106.633 13.2143 106.197 13.2143V19.8404Z" fill="white"/>
<path d="M117.977 24.0568C117.977 17.2712 117.977 3.35961 117.977 3.28516H121.906V11.6608H124V15.3089H121.906C121.911 18.1327 121.906 24.0568 121.906 24.0568H117.972H117.977Z" fill="white"/>
<path d="M86.866 19.894C84.4579 19.8887 79.5143 19.894 79.4292 19.894V23.5261H99.0711V19.8834H91.6343V17.1074H86.866V19.894Z" fill="white"/>
<path d="M85.2723 15.6288C83.7042 15.5756 82.3114 15.0385 81.2111 13.8845C80.4668 13.1028 80.0203 12.1668 79.829 11.1139C79.6004 9.88016 79.6376 8.65706 80.0735 7.47117C80.7752 5.56738 82.1679 4.43998 84.1241 4.00392C84.6557 3.88693 85.2085 3.83375 85.7507 3.82843C88.0844 3.81247 90.4233 3.81779 92.757 3.82843C93.9318 3.82843 95.0587 4.04646 96.09 4.64738C97.5571 5.50355 98.397 6.7958 98.7 8.44434C98.918 9.64086 98.8648 10.8374 98.4502 11.986C97.7697 13.8632 96.4089 14.9906 94.4846 15.4639C93.9211 15.6022 93.3523 15.6501 92.7729 15.6447C91.6034 15.6447 86.6013 15.6713 85.2776 15.6288H85.2723ZM86.3514 7.49776C85.671 7.49776 85.1182 7.69983 84.7035 8.10399C84.2889 8.50815 84.0816 9.05058 84.0816 9.73658C84.0816 10.4226 84.2889 10.9597 84.7035 11.3692C85.1182 11.7733 85.6657 11.9754 86.3514 11.9754H92.1669C92.8473 11.9754 93.4002 11.7733 93.8148 11.3692C94.2294 10.965 94.4368 10.4226 94.4368 9.73658C94.4368 9.05058 94.2294 8.51347 93.8148 8.10399C93.4002 7.69983 92.8526 7.49776 92.1669 7.49776H86.3514Z" fill="white"/>
<path d="M67.6112 13.7948H56.2354C56.2354 10.3914 56.2354 6.98796 56.2354 3.58984C57.7982 3.58984 59.361 3.58984 60.9186 3.58984C60.9186 5.91907 60.9186 8.2483 60.9186 10.5775C63.0768 10.5775 67.5261 10.5775 67.6058 10.5775V13.7948H67.6112Z" fill="white"/>
<path d="M75.346 14.2187H70.6309V3.28516H75.346C75.346 3.35961 75.346 5.83774 75.346 7.01299H77.4298V10.6876H75.346V14.2134V14.2187Z" fill="white"/>
<path d="M56.7937 15.8262H75.3937C75.3937 18.5702 75.3883 21.3142 75.3937 24.0529H56.7937V15.8262ZM70.6839 19.0488H61.5088V20.8197H70.6839V19.0488Z" fill="white"/>
<path d="M52.1539 6.70987H54.2537V10.4058H52.1539V14.2134H47.4495V3.28516H52.1539V6.70987Z" fill="white"/>
<path d="M48.0925 24.0934H37.6789C35.4303 24.0934 33.6123 22.2693 33.6123 20.0252C33.6123 17.7757 35.4356 15.957 37.6789 15.957H48.0925C50.3411 15.957 52.1591 17.7811 52.1591 20.0252C52.1591 22.2747 50.3358 24.0934 48.0925 24.0934ZM47.4015 20.0252C47.4015 19.5891 47.0506 19.2382 46.6147 19.2382H39.1567C38.7208 19.2382 38.3699 19.5891 38.3699 20.0252C38.3699 20.4613 38.7208 20.8123 39.1567 20.8123H46.6147C47.0506 20.8123 47.4015 20.4613 47.4015 20.0252Z" fill="white"/>
<path d="M32.5276 10.8622C34.3934 10.8622 35.935 10.6176 37.1576 10.1283C38.375 9.63909 39.3265 8.77228 39.2893 7.16628H33.0592V3.58203H44.4509C44.4509 6.58663 43.9991 8.88927 43.0901 10.4793C42.1811 12.0694 40.9212 13.1436 39.2999 13.6966C37.6839 14.2497 35.6001 14.5262 33.0592 14.5262L32.5276 10.8622Z" fill="white"/>
<rect width="27.9371" height="27.9371" rx="4.79755" fill="white"/>
<path d="M21.5608 23.9126H9.5268C7.92364 23.9126 6.41721 23.287 5.28049 22.1533C4.14376 21.0161 3.52185 19.5091 3.52185 17.9053C3.52185 14.594 6.21683 11.898 9.5268 11.898H11.0678V10.353C11.0678 7.04172 13.7627 4.3457 17.0727 4.3457C18.6793 4.3457 20.1857 4.96786 21.319 6.10503C22.4523 7.2422 23.0776 8.7492 23.0776 10.3564V22.3987C23.0776 22.7996 22.9221 23.1798 22.6388 23.4667C22.3521 23.7536 21.9755 23.9126 21.5643 23.9126H21.5608Z" fill="url(#paint0_linear_192_973)"/>
<path d="M8.33948 13.2804L23.0858 22.4158V11.96L18.8671 7.91602L8.33948 13.2804Z" fill="#FF66CC"/>
<path d="M23.0805 11.902V22.3854C23.0805 22.7864 22.925 23.1666 22.6417 23.4535C22.3549 23.7403 21.9783 23.8993 21.5672 23.8993H9.53313C7.92997 23.8993 6.42356 23.2737 5.28684 22.14C4.15011 21.0028 3.5282 19.4958 3.5282 17.8921C3.5282 14.5808 6.22316 11.8848 9.53313 11.8848L11.0741 11.902H23.0874H23.0805Z" fill="url(#paint1_linear_192_973)"/>
<defs>
<linearGradient id="paint0_linear_192_973" x1="14.6818" y1="24.476" x2="12.002" y2="4.39782" gradientUnits="userSpaceOnUse">
<stop offset="0.11" stop-color="#503D7C"/>
<stop offset="0.93" stop-color="#4D3DBF"/>
</linearGradient>
<linearGradient id="paint1_linear_192_973" x1="14.3219" y1="17.0971" x2="8.76233" y2="31.3741" gradientUnits="userSpaceOnUse">
<stop stop-color="#786EF4"/>
<stop offset="0.53" stop-color="#5F51D5"/>
<stop offset="1" stop-color="#4D3DBF"/>
</linearGradient>
</defs>
</svg>
