<svg width="156" height="37" viewBox="0 0 156 37" fill="none" xmlns="http://www.w3.org/2000/svg">
<path d="M33.7769 36.6377H11.2439C8.24204 36.6377 5.42137 35.4663 3.29293 33.3435C1.16449 31.2142 0 28.3925 0 25.3895C0 19.1893 5.04615 14.1412 11.2439 14.1412H14.1292V11.2483C14.1292 5.04813 19.1754 0 25.3731 0C28.3813 0 31.202 1.16495 33.324 3.29422C35.446 5.42349 36.6169 8.24527 36.6169 11.2547V33.803C36.6169 34.5538 36.3258 35.2657 35.7953 35.8028C35.2583 36.34 34.5532 36.6377 33.7833 36.6377H33.7769Z" fill="white"/>
<path d="M9.01172 16.73L36.6232 33.8354V14.2577L28.7305 6.68555L9.01172 16.73Z" fill="#766EEC"/>
<path d="M36.6232 14.1476V33.777C36.6232 34.5278 36.332 35.2397 35.8015 35.7769C35.2646 36.314 34.5594 36.6117 33.7896 36.6117H11.2566C8.25474 36.6117 5.43407 35.4403 3.30563 33.3175C1.17719 31.1882 0.0126953 28.3665 0.0126953 25.3635C0.0126953 19.1634 5.05885 14.1152 11.2566 14.1152L14.1419 14.1476H36.6361H36.6232Z" fill="white"/>
<path d="M146.609 9.83105C146.609 17.6556 146.609 33.6931 146.609 33.8032H130.061V9.83105C130.061 9.83105 130.067 9.83105 130.073 9.83105C131.464 9.83105 132.855 9.844 134.246 9.83105C134.246 12.1739 134.246 15.1575 134.246 17.5456H136.206C136.206 15.2028 136.206 9.83105 136.206 9.83105C136.206 9.83105 139.312 9.844 140.405 9.83105C140.399 12.3033 140.405 15.0733 140.405 17.5456H142.385V9.83105H146.616H146.609ZM142.365 29.7129V21.6488C141.79 21.6488 140.399 21.6488 140.399 21.6488C140.399 23.9334 140.399 29.7129 140.399 29.7129H142.365ZM134.246 29.7129H136.206V21.6488C135.65 21.6488 134.777 21.6488 134.246 21.6488V29.7129Z" fill="white"/>
<path d="M148.583 34.8449C148.583 26.5867 148.583 9.65604 148.583 9.56543H153.364V19.7588H155.912V24.1985H153.364C153.37 27.6351 153.364 34.8449 153.364 34.8449H148.576H148.583Z" fill="white"/>
<path d="M110.718 29.7775C107.787 29.7711 101.771 29.7775 101.667 29.7775V34.1979H125.572V29.7646H116.521V26.3862H110.718V29.7775Z" fill="white"/>
<path d="M108.777 24.5869C106.869 24.5222 105.174 23.8685 103.835 22.4641C102.929 21.5127 102.386 20.3737 102.153 19.0922C101.874 17.5907 101.92 16.1022 102.45 14.6589C103.304 12.342 104.999 10.9699 107.38 10.4392C108.027 10.2968 108.7 10.2321 109.36 10.2256C112.2 10.2062 115.046 10.2127 117.886 10.2256C119.316 10.2256 120.688 10.491 121.943 11.2223C123.728 12.2643 124.75 13.837 125.119 15.8433C125.384 17.2995 125.32 18.7557 124.815 20.1536C123.987 22.4382 122.331 23.8103 119.989 24.3863C119.303 24.5545 118.611 24.6128 117.906 24.6063C116.482 24.6063 110.395 24.6387 108.784 24.5869H108.777ZM110.091 14.6913C109.263 14.6913 108.59 14.9372 108.085 15.4291C107.58 15.9209 107.328 16.5811 107.328 17.416C107.328 18.2509 107.58 18.9045 108.085 19.4029C108.59 19.8947 109.256 20.1407 110.091 20.1407H117.168C117.996 20.1407 118.669 19.8947 119.174 19.4029C119.678 18.911 119.931 18.2509 119.931 17.416C119.931 16.5811 119.678 15.9274 119.174 15.4291C118.669 14.9372 118.003 14.6913 117.168 14.6913H110.091Z" fill="white"/>
<path d="M87.285 22.3543H73.4404C73.4404 18.2122 73.4404 14.0701 73.4404 9.93457C75.3424 9.93457 77.2444 9.93457 79.14 9.93457C79.14 12.7693 79.14 15.604 79.14 18.4387C81.7666 18.4387 87.1815 18.4387 87.2785 18.4387V22.3543H87.285Z" fill="white"/>
<path d="M96.6983 22.8718H90.96V9.56543H96.6983C96.6983 9.65604 96.6983 12.672 96.6983 14.1023H99.2343V18.5744H96.6983V22.8653V22.8718Z" fill="white"/>
<path d="M74.1201 24.8267H96.7566C96.7566 28.1662 96.7502 31.5057 96.7566 34.8388H74.1201V24.8267ZM91.0247 28.7487H79.8585V30.9038H91.0247V28.7487Z" fill="white"/>
<path d="M68.4725 13.7334H71.0279V18.2314H68.4725V22.8653H62.7471V9.56543H68.4725V13.7334Z" fill="white"/>
<path d="M63.529 34.8904H50.8554C48.1188 34.8904 45.9062 32.6705 45.9062 29.9393C45.9062 27.2017 48.1253 24.9883 50.8554 24.9883H63.529C66.2655 24.9883 68.4781 27.2082 68.4781 29.9393C68.4781 32.677 66.2591 34.8904 63.529 34.8904ZM62.6879 29.9393C62.6879 29.4086 62.261 28.9815 61.7305 28.9815H52.6539C52.1234 28.9815 51.6964 29.4086 51.6964 29.9393C51.6964 30.47 52.1234 30.8972 52.6539 30.8972H61.7305C62.261 30.8972 62.6879 30.47 62.6879 29.9393Z" fill="white"/>
<path d="M44.5869 18.7883C46.8577 18.7883 48.7338 18.4906 50.2218 17.8952C51.7033 17.2998 52.8613 16.2449 52.816 14.2903H45.2339V9.92822H59.0978C59.0978 13.5849 58.5479 16.3872 57.4417 18.3223C56.3354 20.2575 54.8021 21.5648 52.829 22.2379C50.8622 22.911 48.3262 23.2475 45.2339 23.2475L44.5869 18.7883Z" fill="white"/>
</svg>
