<svg width="20" height="20" viewBox="0 0 20 20" fill="none" xmlns="http://www.w3.org/2000/svg">
<circle cx="10" cy="10" r="8.5" stroke="#4D3DBF"/>
<path d="M6.20977 10.442H5.05549V9.55801H5.96559L5 6H6.00999L6.91454 9.55801H8.50721L9.43951 6H10.5494L11.4817 9.55801H13.0744L13.9789 6H15L14.0289 9.55801H14.9445V10.442H13.7847L12.8135 14H11.7814L10.7991 10.442H9.19534L8.21865 14H7.17536L6.20977 10.442ZM7.66371 12.4862H7.7414L8.27414 10.442H7.14206L7.66371 12.4862ZM10.5549 9.55801L10.0277 7.65746H9.96115L9.43951 9.55801H10.5549ZM12.2475 12.4862H12.3252L12.8468 10.442H11.7148L12.2475 12.4862Z" fill="#4D3DBF"/>
</svg>
