<svg width="66" height="66" viewBox="0 0 66 66" fill="none" xmlns="http://www.w3.org/2000/svg">
<rect width="66" height="66" rx="33" fill="#F8F8F8"/>
<path d="M23.6364 37.1146C23.3852 37.1146 23.1464 36.9579 23.0558 36.7063C22.9405 36.3847 23.1052 36.03 23.4264 35.9145C24.4064 35.5599 25.304 35.0526 26.0987 34.4052C26.3663 34.1907 26.7533 34.232 26.9675 34.4959C27.1816 34.7598 27.1404 35.1516 26.8769 35.3661C25.9751 36.096 24.954 36.6734 23.8464 37.0734C23.7764 37.0981 23.7064 37.1105 23.6364 37.1105V37.1146ZM28.6886 33.0731C28.5692 33.0731 28.4498 33.0401 28.3427 32.97C28.0586 32.7803 27.9845 32.3968 28.1739 32.1123C28.7256 31.2916 29.2115 30.3472 29.6191 29.308C29.7427 28.9904 30.1009 28.8337 30.4179 28.9574C30.735 29.0812 30.8915 29.4399 30.7679 29.7575C30.3274 30.8833 29.8003 31.9102 29.1992 32.801C29.0797 32.9783 28.8862 33.0731 28.6845 33.0731H28.6886ZM31.1467 26.9903C31.1014 26.9903 31.0562 26.9862 31.0109 26.9738C30.6773 26.8996 30.4715 26.5655 30.5456 26.2356C30.7679 25.25 30.9491 24.1737 31.0809 23.0437C31.122 22.7055 31.4267 22.4581 31.7685 22.5035C32.1061 22.5447 32.3491 22.8499 32.3079 23.1922C32.172 24.3634 31.9826 25.4809 31.7479 26.5119C31.682 26.8006 31.4267 26.9944 31.1467 26.9944V26.9903ZM31.9497 20.4456C31.9497 20.4456 31.9332 20.4456 31.925 20.4456C31.5832 20.4291 31.3197 20.1404 31.332 19.8023C31.3814 18.6764 31.3897 17.6619 31.3897 16.7299C31.3897 16.3876 31.6655 16.1113 32.0073 16.1113C32.349 16.1113 32.6249 16.3876 32.6249 16.7299C32.6249 17.6743 32.6167 18.7094 32.5673 19.8559C32.5508 20.1899 32.2791 20.4497 31.9497 20.4497V20.4456Z" fill="#4D3DBF"/>
<path d="M34.1621 49.7584C34.0921 49.7584 34.018 49.746 33.948 49.7213C26.0423 46.7974 24.2142 40.5455 24.14 40.2815C24.0536 39.9681 24.2224 39.6423 24.523 39.5351C36.9455 35.0194 35.4962 15.8265 35.4797 15.6327C35.4509 15.2904 35.702 14.9935 36.0438 14.9646C36.3773 14.9399 36.682 15.1873 36.7108 15.5296C36.7767 16.3461 38.2014 35.2957 25.5194 40.4754C26.1329 41.9806 28.3729 46.3437 34.3721 48.5624C34.6933 48.682 34.8538 49.0367 34.7385 49.3584C34.648 49.6099 34.4091 49.7625 34.158 49.7625L34.1621 49.7584Z" fill="#3F3F3F"/>
<path d="M41.3867 46.9115C41.2384 46.9115 41.0902 46.8579 40.9708 46.7506C39.1221 45.0681 36.9151 46.7135 36.8203 46.7836C36.5486 46.9898 36.1616 46.9362 35.9557 46.6682C35.7498 46.396 35.7992 46.0125 36.0668 45.8021C37.1333 44.9773 39.7067 43.9299 41.7984 45.8351C42.0496 46.0661 42.0702 46.4578 41.8396 46.7094C41.7161 46.8455 41.5514 46.9115 41.3826 46.9115H41.3867Z" fill="#3F3F3F"/>
</svg>
