<svg width="66" height="66" viewBox="0 0 66 66" fill="none" xmlns="http://www.w3.org/2000/svg">
<rect width="66" height="66" rx="33" fill="#F8F8F8"/>
<path d="M31.9517 40.035C28.6218 40.035 23.9185 36.526 21.4709 32.2148C18.8904 27.6706 17.3916 17.081 17.3288 16.6336C17.2845 16.3304 17.4986 16.0494 17.8013 16.0087C18.1041 15.9644 18.3846 16.1788 18.4252 16.482C18.44 16.5892 19.9573 27.3082 22.4308 31.6676C24.8968 36.0084 29.3417 38.9257 31.948 38.9257C34.5544 38.9257 39.0841 35.9418 41.5612 31.4975C43.9793 27.1603 45.4597 16.5855 45.4745 16.4783C45.5151 16.1751 45.7956 15.9643 46.0984 16.005C46.4011 16.0457 46.6115 16.3267 46.5709 16.6299C46.5081 17.0736 45.0499 27.519 42.5285 32.0373C40.0698 36.4447 35.3222 40.0313 31.948 40.0313L31.9517 40.035Z" fill="#3F3F3F"/>
<path d="M17.117 52.9162C16.8622 52.9162 16.637 52.7424 16.578 52.4835C16.5115 52.184 16.6961 51.8882 16.9951 51.8217C26.5936 49.6513 24.4229 36.5659 24.4007 36.4328C24.349 36.1296 24.5484 35.8449 24.8511 35.7894C25.1538 35.7376 25.4381 35.9373 25.4935 36.2405C25.5193 36.3847 27.8562 50.5017 17.2388 52.9014C17.1982 52.9125 17.1576 52.9162 17.117 52.9162Z" fill="#3F3F3F"/>
<path d="M46.7838 52.9152C46.7432 52.9152 46.7025 52.9115 46.6619 52.9004C36.0446 50.5008 38.3851 36.3838 38.4073 36.2396C38.4589 35.9364 38.7506 35.7404 39.0496 35.7885C39.3523 35.8403 39.5517 36.1287 39.5 36.4318C39.4077 36.9717 37.3182 49.654 46.9056 51.8208C47.2046 51.8873 47.3929 52.1868 47.3228 52.4826C47.2637 52.7414 47.0348 52.9152 46.7838 52.9152Z" fill="#3F3F3F"/>
<path d="M13.5 25C13.5 23.0664 12.3811 21.5 11 21.5C12.3811 21.5 13.5 19.9336 13.5 18C13.5 19.9336 14.6189 21.5 16 21.5C14.6189 21.5 13.5 23.0664 13.5 25Z" stroke="#4D3DBF" stroke-miterlimit="10" stroke-linejoin="round"/>
<path d="M10.5 34C10.5 31.2377 8.9336 29 7 29C8.9336 29 10.5 26.7623 10.5 24C10.5 26.7623 12.0664 29 14 29C12.0664 29 10.5 31.2377 10.5 34Z" stroke="#4D3DBF" stroke-miterlimit="10" stroke-linejoin="round"/>
</svg>
