<svg width="150" height="36" viewBox="0 0 150 36" fill="none" xmlns="http://www.w3.org/2000/svg">
<path d="M32.4957 35.248H10.8174C7.92944 35.248 5.21573 34.121 3.16803 32.0787C1.12032 30.0302 0 27.3155 0 24.4264C0 18.4615 4.85477 13.6048 10.8174 13.6048H13.5933V10.8216C13.5933 4.85665 18.448 0 24.4106 0C27.3048 0 30.0185 1.12076 32.06 3.16927C34.1015 5.21777 35.228 7.93252 35.228 10.8278V32.5208C35.228 33.2431 34.9479 33.928 34.4375 34.4448C33.921 34.9616 33.2425 35.248 32.5019 35.248H32.4957Z" fill="url(#paint0_linear_321_55649)"/>
<path d="M8.67773 16.0971L35.2419 32.5536V13.7186L27.6423 6.43359L8.67773 16.0971Z" fill="#FF66CC"/>
<path d="M35.2335 13.6132V32.498C35.2335 33.2203 34.9534 33.9052 34.443 34.422C33.9264 34.9388 33.248 35.2252 32.5074 35.2252H10.8291C7.94112 35.2252 5.22745 34.0982 3.17975 32.056C1.13204 30.0074 0.0117188 27.2927 0.0117188 24.4036C0.0117188 18.4387 4.86645 13.582 10.8291 13.582L13.605 13.6132H35.246H35.2335Z" fill="url(#paint1_linear_321_55649)"/>
<path d="M141.052 9.45703C141.052 16.9848 141.052 32.414 141.052 32.5199H125.131V9.45703C125.131 9.45703 125.137 9.45703 125.143 9.45703C126.481 9.45703 127.82 9.46948 129.158 9.45703C129.158 11.711 129.158 14.5814 129.158 16.879H131.044C131.044 14.625 131.044 9.45703 131.044 9.45703C131.044 9.45703 134.031 9.46948 135.083 9.45703C135.077 11.8355 135.083 14.5005 135.083 16.879H136.988V9.45703H141.058H141.052ZM136.975 28.5847V20.8266C136.421 20.8266 135.083 20.8266 135.083 20.8266C135.083 23.0245 135.083 28.5847 135.083 28.5847H136.975ZM129.158 28.5847H131.044V20.8266C130.508 20.8266 129.668 20.8266 129.158 20.8266V28.5847Z" fill="#4D3DBF"/>
<path d="M142.952 33.5217C142.952 25.5768 142.952 9.28834 142.952 9.20117H147.551V19.0079H150.003V23.2792H147.551C147.557 26.5855 147.551 33.5217 147.551 33.5217H142.945H142.952Z" fill="#4D3DBF"/>
<path d="M106.524 28.6474C103.704 28.6412 97.916 28.6474 97.8164 28.6474V32.9001H120.814V28.635H112.107V25.3848H106.524V28.6474Z" fill="#4D3DBF"/>
<path d="M104.651 23.6545C102.814 23.5922 101.184 22.9634 99.8954 21.6122C99.024 20.6969 98.5012 19.6011 98.2771 18.3682C98.0095 16.9237 98.0531 15.4916 98.5635 14.1031C99.385 11.874 101.016 10.554 103.306 10.0434C103.929 9.90645 104.576 9.84419 105.211 9.83796C107.943 9.81928 110.682 9.82551 113.414 9.83796C114.789 9.83796 116.109 10.0932 117.316 10.7968C119.034 11.7993 120.018 13.3123 120.372 15.2425C120.628 16.6435 120.565 18.0444 120.08 19.3894C119.283 21.5873 117.69 22.9073 115.437 23.4615C114.777 23.6234 114.111 23.6794 113.433 23.6732C112.063 23.6732 106.207 23.7043 104.657 23.6545H104.651ZM105.914 14.1342C105.117 14.1342 104.47 14.3708 103.985 14.844C103.499 15.3172 103.256 15.9523 103.256 16.7556C103.256 17.5588 103.499 18.1876 103.985 18.6671C104.47 19.1403 105.111 19.3769 105.914 19.3769H112.723C113.52 19.3769 114.167 19.1403 114.653 18.6671C115.138 18.1939 115.381 17.5588 115.381 16.7556C115.381 15.9523 115.138 15.3235 114.653 14.844C114.167 14.3708 113.526 14.1342 112.723 14.1342H105.914Z" fill="#4D3DBF"/>
<path d="M83.9776 21.5033H70.6582C70.6582 17.5183 70.6582 13.5334 70.6582 9.55469C72.4881 9.55469 74.3179 9.55469 76.1416 9.55469C76.1416 12.2819 76.1416 15.0091 76.1416 17.7363C78.6685 17.7363 83.8781 17.7363 83.9714 17.7363V21.5033H83.9776Z" fill="#4D3DBF"/>
<path d="M93.0344 22.0028H87.5137V9.20117H93.0344C93.0344 9.28834 93.0344 12.1899 93.0344 13.5659H95.4742V17.8684H93.0344V21.9966V22.0028Z" fill="#4D3DBF"/>
<path d="M71.3184 23.8828H93.0963C93.0963 27.0957 93.09 30.3085 93.0963 33.5152H71.3184V23.8828ZM87.5755 27.656H76.8329V29.7295H87.5755V27.656Z" fill="#4D3DBF"/>
<path d="M65.8774 13.211H68.3359V17.5384H65.8774V21.9966H60.3691V9.20117H65.8774V13.211Z" fill="#4D3DBF"/>
<path d="M61.1203 33.5656H48.9274C46.2946 33.5656 44.166 31.4299 44.166 28.8023C44.166 26.1685 46.3009 24.0391 48.9274 24.0391H61.1203C63.753 24.0391 65.8817 26.1747 65.8817 28.8023C65.8817 31.4361 63.7468 33.5656 61.1203 33.5656ZM60.3112 28.8023C60.3112 28.2917 59.9004 27.8808 59.39 27.8808H50.6577C50.1473 27.8808 49.7365 28.2917 49.7365 28.8023C49.7365 29.3129 50.1473 29.7238 50.6577 29.7238H59.39C59.9004 29.7238 60.3112 29.3129 60.3112 28.8023Z" fill="#4D3DBF"/>
<path d="M42.8965 18.0748C45.0811 18.0748 46.8861 17.7884 48.3176 17.2156C49.7429 16.6427 50.857 15.6278 50.8134 13.7474H43.5189V9.55078H56.857C56.857 13.0687 56.3279 15.7648 55.2636 17.6265C54.1993 19.4882 52.7242 20.746 50.8259 21.3935C48.9338 22.0411 46.494 22.3648 43.5189 22.3648L42.8965 18.0748Z" fill="#4D3DBF"/>
<defs>
<linearGradient id="paint0_linear_321_55649" x1="20.1036" y1="36.2629" x2="15.2763" y2="0.0938909" gradientUnits="userSpaceOnUse">
<stop offset="0.11" stop-color="#503D7C"/>
<stop offset="0.93" stop-color="#4D3DBF"/>
</linearGradient>
<linearGradient id="paint1_linear_321_55649" x1="19.4556" y1="22.9715" x2="9.44055" y2="48.6904" gradientUnits="userSpaceOnUse">
<stop stop-color="#786EF4"/>
<stop offset="0.53" stop-color="#5F51D5"/>
<stop offset="1" stop-color="#4D3DBF"/>
</linearGradient>
</defs>
</svg>
